<svg width="852" height="510" viewBox="0 0 852 510" fill="none" xmlns="http://www.w3.org/2000/svg">
<path fill-rule="evenodd" clip-rule="evenodd" d="M748.271 159.827C748.271 140.233 740.421 123.204 724.72 108.742C709.496 94.2794 687.848 87.0481 659.778 87.0481C635.989 87.0481 617.197 91.9467 603.399 101.744C602.095 102.626 600.852 103.539 599.671 104.484L604.549 6.26358C621.601 2.27015 640.011 0.273438 659.778 0.273438C689.276 0.273438 715.443 4.47221 738.28 12.8698C761.117 20.8008 780.148 31.7643 795.372 45.7602C811.073 59.7561 822.729 75.8514 830.341 94.0461C838.429 112.241 842.473 131.369 842.473 151.429V176.622H748.271V159.827ZM604.554 6.16203L604.549 6.26358C599.028 7.55653 593.649 9.05879 588.412 10.7704C567.479 17.7683 549.399 27.5655 534.175 40.1618C519.426 52.7581 507.77 67.6871 499.206 84.9487C491.118 101.744 487.074 120.172 487.074 140.233V144.431C487.074 168.691 491.356 189.218 499.919 206.013C508.483 222.809 520.377 236.804 535.602 248.001C551.302 259.198 569.62 268.295 590.553 275.293C590.762 275.358 590.971 275.423 591.18 275.488L585.39 392.089C571.229 375.007 564.148 353.104 564.148 326.378V309.583H469.946V309.592H469.808L483.025 6.16203H604.554ZM468.419 341.492L466.821 378.167V441.101H442.515V378.167L410.108 6.16203H195.407L162.999 378.167V441.101H138.694V378.167L122.49 6.16203H0.960938L25.2667 495.643H258.197L290.604 123.637V56.5086H314.91V123.637L347.318 495.643H580.248L580.256 495.49C581.067 495.806 581.883 496.119 582.703 496.429C607.919 505.293 636.941 509.725 669.769 509.725C697.839 509.725 723.055 506.226 745.416 499.228C767.778 492.23 786.808 482.2 802.509 469.137C818.209 456.074 830.103 440.445 838.191 422.25C846.755 403.589 851.037 382.829 851.037 359.969V351.571C851.037 308.65 837.24 276.226 809.645 254.299C782.051 232.372 742.086 216.744 689.751 207.413C668.818 203.681 651.452 199.715 637.655 195.516C624.333 191.318 613.39 186.652 604.827 181.521C601.561 179.26 598.684 176.924 596.194 174.512L599.671 104.484C588.359 113.531 582.703 125.448 582.703 140.233C582.703 148.63 584.368 156.328 587.699 163.326C589.685 167.221 592.516 170.949 596.194 174.512L591.18 275.488C611.947 281.931 634.813 287.232 659.778 291.389C678.809 294.654 694.509 298.62 706.879 303.285C719.249 307.95 729.002 313.315 736.139 319.38C743.275 324.979 748.271 331.51 751.126 338.975C753.98 345.973 755.408 353.437 755.408 361.368C755.408 378.163 748.509 392.626 734.712 404.755C720.914 416.885 699.742 422.95 671.196 422.95C634.562 422.95 607.443 414.319 589.84 397.058C588.286 395.45 586.803 393.793 585.39 392.089L580.256 495.49C556.595 486.259 536.715 473.976 520.615 458.64C503.963 442.311 491.356 423.417 482.792 401.956C475.455 383.171 471.261 363.017 470.21 341.492H468.419Z" fill="#1552EF"/>
<path fill-rule="evenodd" clip-rule="evenodd" d="M604.554 6.16211L604.549 6.26365C599.028 7.55661 593.649 9.05887 588.412 10.7704C567.479 17.7684 549.399 27.5656 534.175 40.1619C519.426 52.7582 507.77 67.6872 499.206 84.9488C491.118 101.744 487.074 120.172 487.074 140.233V144.431C487.074 168.691 491.356 189.218 499.919 206.014C508.483 222.809 520.377 236.805 535.602 248.001C551.302 259.198 569.62 268.295 590.553 275.293C590.679 275.333 590.805 275.372 590.932 275.411L591.18 275.488L585.39 392.089C571.229 375.007 564.148 353.104 564.148 326.378V309.583H469.946V309.592H469.808L483.025 6.16211H604.554ZM468.419 341.492L466.821 378.167V441.101H442.515V378.167L410.108 6.16211H195.407L162.999 378.167V441.101H138.694V378.167L122.49 6.16211H0.960938L25.2667 495.643H258.197L290.604 123.637V56.5087H314.91V123.637L347.318 495.643H580.248L580.256 495.49C556.595 486.259 536.715 473.976 520.615 458.64C503.963 442.311 491.356 423.417 482.792 401.956C475.455 383.171 471.261 363.017 470.21 341.492H468.419ZM582.703 140.233C582.703 125.448 588.359 113.531 599.671 104.484L596.194 174.512C592.516 170.949 589.685 167.221 587.699 163.326C584.368 156.328 582.703 148.63 582.703 140.233Z" fill="#45BCFF"/>
</svg>
